<svg width="82" height="82" viewBox="0 0 88 88" fill="none" xmlns="http://www.w3.org/2000/svg">
<path d="M72.3864 31.3846C72.3864 50.3077 44.0018 72.3846 44.0018 72.3846C44.0018 72.3846 15.6172 50.3077 15.6172 31.3846C15.6172 15.9245 28.5416 3 44.0018 3C59.462 3 72.3864 15.9245 72.3864 31.3846Z" stroke="#2563eb" stroke-width="6" stroke-linecap="round" stroke-linejoin="round"/>
<path d="M43.9996 40.8464C49.2251 40.8464 53.4612 36.6104 53.4612 31.3849C53.4612 26.1594 49.2251 21.9233 43.9996 21.9233C38.7741 21.9233 34.5381 26.1594 34.5381 31.3849C34.5381 36.6104 38.7741 40.8464 43.9996 40.8464Z" stroke="#2563eb" stroke-width="6" stroke-linecap="round" stroke-linejoin="round"/>
<path d="M69.7184 62.9233H75.5385L85 85.0003H3L12.4615 62.9233H18.2816" stroke="#2563eb" stroke-width="6" stroke-linecap="round" stroke-linejoin="round"/>
</svg>
